<?xml version="1.0" encoding="utf-8"?>
<svg viewBox="-55.907 -135 1000 785.603" width="1000" height="785.603" xmlns="http://www.w3.org/2000/svg">
  <defs>
    <marker id="arrowhead" markerWidth="10" markerHeight="7" refX="10" refY="3.5" orient="auto">
      <polygon points="0 0, 10 3.5, 0 7" fill="#333"/>
    </marker>
  </defs>
  <rect width="1000" height="785.603" fill="#f5f5f5" x="-55.907" y="-135" style=""/>
  <text x="444.093" y="-105" font-family="Arial" font-size="24" text-anchor="middle" font-weight="bold" style="white-space: pre; font-size: 24px;">AI4EDU Research System Architecture</text>
  <rect x="-5.907" y="-65" width="650" height="580" rx="10" ry="10" fill="#F7F7F7" stroke="#FF9900" stroke-width="2" stroke-dasharray="5,5"/>
  <text x="44.093" y="-40" font-family="Arial" font-size="16" font-weight="bold" fill="#232F3E" style="white-space: pre; font-size: 16px;">AWS (Ohio Region)</text>
  <rect x="24.093" y="-25" width="590" height="520" rx="8" ry="8" fill="#E8F4FA" stroke="#0070A8" stroke-width="2"/>
  <rect x="64.093" y="105.125" width="510" height="139.875" rx="5" ry="5" fill="#FFFFFF" stroke="#0070A8" stroke-width="2" style=""/>
  <text x="64.093" y="0" font-family="Arial" font-size="18" font-weight="bold" fill="#0070A8" style="white-space: pre; font-size: 18px;">Backend</text>
  <rect x="44.093" y="15" width="550" height="60" rx="5" ry="5" fill="#FFFFFF" stroke="#555555" stroke-width="2"/>
  <text x="319.093" y="50" font-family="Arial" font-size="14" text-anchor="middle" font-weight="bold" style="white-space: pre; font-size: 14px;">NGINX Gateway</text>
  <text x="319.093" y="70" font-family="Arial" font-size="12" text-anchor="middle" style="white-space: pre; font-size: 12px;">(Load Balancing between two backend containers)</text>
  <rect x="94.052" y="124.836" width="200" height="80" rx="5" ry="5" fill="#D1E7F0" stroke="#0070A8" stroke-width="2"/>
  <text x="194.16" y="155.386" font-family="Arial" font-size="14" text-anchor="middle" font-weight="bold" style="white-space: pre; font-size: 14px;">Backend Container 1</text>
  <rect x="342.054" y="125.232" width="200" height="80" rx="5" ry="5" fill="#D1E7F0" stroke="#0070A8" stroke-width="2"/>
  <text x="442.803" y="155.174" font-family="Arial" font-size="14" text-anchor="middle" font-weight="bold" style="white-space: pre; font-size: 14px;">Backend Container 2</text>
  <text x="319.093" y="225" font-family="Arial" font-size="14" text-anchor="middle" font-weight="bold" style="white-space: pre; font-size: 14px;">API Server</text>
  <text x="319.093" y="240" font-family="Arial" font-size="10" text-anchor="middle" style="white-space: pre; font-size: 10px;">(Handles all external requests and enforces access controls)</text>
  <rect x="64.093" y="265" width="510" height="210" rx="5" ry="5" fill="#F2F8F2" stroke="#2E7D32" stroke-width="1"/>
  <text x="114.093" y="285" font-family="Arial" font-size="14" font-weight="bold" fill="#2E7D32" style="white-space: pre; font-size: 14px;">Data Storage</text>
  <rect x="74.093" y="295" width="150" height="70" rx="5" ry="5" fill="#FFFFFF" stroke="#336791" stroke-width="2"/>
  <text x="149.093" y="330" font-family="Arial" font-size="12" text-anchor="middle" font-weight="bold" style="white-space: pre; font-size: 12px;">PostgreSQL</text>
  <text x="149.093" y="350" font-family="Arial" font-size="10" text-anchor="middle" style="white-space: pre; font-size: 10px;">(User ID ↔ Student ID)</text>
  <rect x="234.093" y="295" width="150" height="70" rx="5" ry="5" fill="#FFFFFF" stroke="#DC382D" stroke-width="2"/>
  <text x="309.093" y="330" font-family="Arial" font-size="12" text-anchor="middle" font-weight="bold" style="white-space: pre; font-size: 12px;">Redis</text>
  <text x="309.093" y="350" font-family="Arial" font-size="10" text-anchor="middle" style="white-space: pre; font-size: 10px;">(Data Caching)</text>
  <rect x="394.093" y="295" width="150" height="70" rx="5" ry="5" fill="#FFFFFF" stroke="#4053D6" stroke-width="2"/>
  <text x="469.093" y="330" font-family="Arial" font-size="12" text-anchor="middle" font-weight="bold" style="white-space: pre; font-size: 12px;">DynamoDB</text>
  <text x="469.093" y="350" font-family="Arial" font-size="10" text-anchor="middle" style="white-space: pre; font-size: 10px;">(Chat Data, Agent Prompts)</text>
  <rect x="74.093" y="385" width="150" height="70" rx="5" ry="5" fill="#FFFFFF" stroke="#000000" stroke-width="2"/>
  <text x="149.093" y="420" font-family="Arial" font-size="12" text-anchor="middle" font-weight="bold" style="white-space: pre; font-size: 12px;">Pinecone</text>
  <text x="149.093" y="440" font-family="Arial" font-size="10" text-anchor="middle" style="white-space: pre; font-size: 10px;">(Vector Database)</text>
  <rect x="234.093" y="385" width="150" height="70" rx="5" ry="5" fill="#FFFFFF" stroke="#E05243" stroke-width="2"/>
  <text x="309.093" y="420" font-family="Arial" font-size="12" text-anchor="middle" font-weight="bold" style="white-space: pre; font-size: 12px;">AWS S3</text>
  <text x="309.093" y="440" font-family="Arial" font-size="10" text-anchor="middle" style="white-space: pre; font-size: 10px;">(Document Storage)</text>
  <rect x="394.093" y="385" width="150" height="70" rx="5" ry="5" fill="#FFF8E1" stroke="#FFA000" stroke-width="2" stroke-dasharray="3,3"/>
  <text x="469.093" y="410" font-family="Arial" font-size="10" text-anchor="middle" font-weight="bold" fill="#795548" style="white-space: pre; font-size: 10px;">Future Migration:</text>
  <text x="469.093" y="425" font-family="Arial" font-size="9" text-anchor="middle" fill="#795548" style="white-space: pre; font-size: 9px;">New unique identifier</text>
  <text x="469.093" y="440" font-family="Arial" font-size="9" text-anchor="middle" fill="#795548" style="white-space: pre; font-size: 9px;">per chat thread</text>
  <rect x="664.093" y="-15" width="230" height="280" rx="10" ry="10" fill="#F5F5F5" stroke="#000000" stroke-width="2"/>
  <text x="714.093" y="10" font-family="Arial" font-size="16" font-weight="bold" style="white-space: pre; font-size: 16px;">Vercel</text>
  <rect x="684.093" y="25" width="190" height="220" rx="8" ry="8" fill="#F0F4FF" stroke="#3F51B5" stroke-width="2"/>
  <text x="724.093" y="50" font-family="Arial" font-size="18" font-weight="bold" fill="#3F51B5" style="white-space: pre; font-size: 18px;">Frontend</text>
  <rect x="704.093" y="65" width="150" height="60" rx="5" ry="5" fill="#FFFFFF" stroke="#3F51B5" stroke-width="2"/>
  <text x="779.093" y="95" font-family="Arial" font-size="14" text-anchor="middle" font-weight="bold" style="white-space: pre; font-size: 14px;">Next.js</text>
  <text x="779.093" y="110" font-family="Arial" font-size="12" text-anchor="middle" style="white-space: pre; font-size: 12px;">with React</text>
  <rect x="704.093" y="145" width="150" height="80" rx="5" ry="5" fill="#E8EAF6" stroke="#3F51B5" stroke-width="2"/>
  <text x="779.093" y="170" font-family="Arial" font-size="12" text-anchor="middle" font-weight="bold" style="white-space: pre; font-size: 12px;">Dual-token Strategy</text>
  <text x="779.093" y="190" font-family="Arial" font-size="10" text-anchor="middle" style="white-space: pre; font-size: 10px;">(Secure User Login)</text>
  <text x="779.093" y="210" font-family="Arial" font-size="10" text-anchor="middle" style="white-space: pre; font-size: 10px;">Global Distribution</text>
  <rect x="664.093" y="285" width="230" height="180" rx="10" ry="10" fill="#F5F5F5" stroke="#673AB7" stroke-width="2"/>
  <text x="714.093" y="310" font-family="Arial" font-size="16" font-weight="bold" fill="#673AB7" style="white-space: pre; font-size: 16px;">LLM Services</text>
  <rect x="684.093" y="325" width="190" height="60" rx="5" ry="5" fill="#FFFFFF" stroke="#673AB7" stroke-width="2"/>
  <text x="779.093" y="360" font-family="Arial" font-size="14" text-anchor="middle" font-weight="bold" style="white-space: pre; font-size: 14px;">Anthropic</text>
  <rect x="684.093" y="395" width="190" height="60" rx="5" ry="5" fill="#FFFFFF" stroke="#673AB7" stroke-width="2"/>
  <text x="779.093" y="430" font-family="Arial" font-size="14" text-anchor="middle" font-weight="bold" style="white-space: pre; font-size: 14px;">OpenAI</text>
  <rect x="-5.907" y="535" width="650" height="100" rx="10" ry="10" fill="#FFF3E0" stroke="#FF9800" stroke-width="2"/>
  <text x="319.093" y="555" font-family="Arial" font-size="16" text-anchor="middle" font-weight="bold" fill="#E65100" style="white-space: pre; font-size: 16px;">Security</text>
  <rect x="64.093" y="565" width="170" height="60" rx="5" ry="5" fill="#FFFFFF" stroke="#FF9800" stroke-width="2"/>
  <text x="149.093" y="590" font-family="Arial" font-size="12" text-anchor="middle" font-weight="bold" style="white-space: pre; font-size: 12px;">CWRU SSO</text>
  <text x="149.093" y="605" font-family="Arial" font-size="10" text-anchor="middle" style="white-space: pre; font-size: 10px;">(Also supports OAuth 2, SAML,</text>
  <text x="149.093" y="617" font-family="Arial" font-size="10" text-anchor="middle" style="white-space: pre; font-size: 10px;">Email Magic Link)</text>
  <rect x="244.093" y="565" width="170" height="60" rx="5" ry="5" fill="#FFFFFF" stroke="#FF9800" stroke-width="2"/>
  <text x="329.093" y="590" font-family="Arial" font-size="12" text-anchor="middle" font-weight="bold" style="white-space: pre; font-size: 12px;">Authentication Middleware</text>
  <text x="329.093" y="610" font-family="Arial" font-size="10" text-anchor="middle" style="white-space: pre; font-size: 10px;">(Verifies all incoming requests)</text>
  <rect x="424.093" y="565" width="170" height="60" rx="5" ry="5" fill="#FFFFFF" stroke="#FF9800" stroke-width="2"/>
  <text x="509.093" y="590" font-family="Arial" font-size="12" text-anchor="middle" font-weight="bold" style="white-space: pre; font-size: 12px;">GitHub Secrets</text>
  <text x="509.093" y="610" font-family="Arial" font-size="10" text-anchor="middle" style="white-space: pre; font-size: 10px;">(Keys Management)</text>
  <rect x="664.093" y="-95" width="230" height="60" rx="8" ry="8" fill="#E0E0E0" stroke="#424242" stroke-width="2"/>
  <text x="779.093" y="-60" font-family="Arial" font-size="14" text-anchor="middle" font-weight="bold" style="white-space: pre; font-size: 14px;">Users</text>
  <text x="779.093" y="-45" font-family="Arial" font-size="10" text-anchor="middle" style="white-space: pre; font-size: 10px;">(Access system via frontend)</text>
  <path d="M 779.093 -35 L 779.093 15" stroke="#424242" stroke-width="2" fill="none" marker-end="url(#arrowhead)"/>
  <path d="M 194.093 75 L 194.093 117.31" stroke="#555555" stroke-width="2" stroke-dasharray="4,2" fill="none" marker-end="url(#arrowhead)" style=""/>
  <path d="M 444.093 75 L 444.093 116.17" stroke="#555555" stroke-width="2" stroke-dasharray="4,2" fill="none" marker-end="url(#arrowhead)" style=""/>
  <path d="M 319.093 245 L 319.093 279.225" stroke="#2E7D32" stroke-width="2" fill="none" marker-end="url(#arrowhead)" style=""/>
  <path d="M 592.079 44 L 710.093 44" stroke="#3F51B5" stroke-width="2" fill="none" marker-end="url(#arrowhead)" style="transform-origin: 651.086px 44px;" transform="matrix(-1, 0, 0, -1, 0, 0)"/>
  <path d="M 574.093 220 L 619.093 220 L 619.093 355 L 684.093 355" stroke="#673AB7" stroke-width="2" fill="none" marker-end="url(#arrowhead)"/>
  <path d="M 574.093 220 L 619.093 220 L 619.093 425 L 684.093 425" stroke="#673AB7" stroke-width="2" fill="none" marker-end="url(#arrowhead)"/>
  <rect x="664.093" y="535" width="40" height="20" fill="#E8F4FA" stroke="#0070A8" stroke-width="1"/>
  <text x="709.093" y="550" font-family="Arial" font-size="10" style="white-space: pre; font-size: 10px;">Backend</text>
  <rect x="664.093" y="560" width="40" height="20" fill="#F0F4FF" stroke="#3F51B5" stroke-width="1"/>
  <text x="709.093" y="575" font-family="Arial" font-size="10" style="white-space: pre; font-size: 10px;">Frontend</text>
  <rect x="664.093" y="585" width="40" height="20" fill="#FFF3E0" stroke="#FF9800" stroke-width="1"/>
  <text x="709.093" y="600" font-family="Arial" font-size="10" style="white-space: pre; font-size: 10px;">Security</text>
</svg>
